<?xml version="1.0" encoding="utf-8"?>
<!-- Generator: Adobe Illustrator 22.0.1, SVG Export Plug-In . SVG Version: 6.00 Build 0)  -->
<svg version="1.1" id="livetype" xmlns="http://www.w3.org/2000/svg" xmlns:xlink="http://www.w3.org/1999/xlink" x="0px" y="0px"
	 viewBox="0 0 134.8 40" style="enable-background:new 0 0 134.8 40;" xml:space="preserve">
<style type="text/css">
	.st0{fill:#13130F;}
	.st1{fill:#A6A6A6;}
	.st2{fill:#FFFFFF;}
	.st3{fill:#FFFFFF;stroke:#FFFFFF;stroke-width:0.2;stroke-miterlimit:10;}
	.st4{fill:url(#SVGID_1_);}
	.st5{fill:url(#SVGID_2_);}
	.st6{fill:url(#SVGID_3_);}
	.st7{fill:url(#SVGID_4_);}
	.st8{opacity:0.2;enable-background:new    ;}
	.st9{opacity:0.12;enable-background:new    ;}
	.st10{opacity:0.25;fill:#FFFFFF;enable-background:new    ;}
</style>
<g>
	<g>
		<path class="st0" d="M129.9,40H4.9c-2.8,0-5-2.2-5-5V5c0-2.7,2.2-5,5-5h125c2.8,0,5,2.2,5,5v30C134.9,37.7,132.7,40,129.9,40z"/>
	</g>
	<g>
		<g>
			<path class="st1" d="M129.9,0.8c2.3,0,4.2,1.9,4.2,4.2v30c0,2.3-1.9,4.2-4.2,4.2H4.9c-2.3,0-4.2-1.9-4.2-4.2V5
				c0-2.3,1.9-4.2,4.2-4.2H129.9 M129.9,0H4.9c-2.8,0-5,2.2-5,5v30c0,2.8,2.2,5,5,5h125c2.8,0,5-2.2,5-5V5
				C134.9,2.3,132.7,0,129.9,0L129.9,0z"/>
		</g>
	</g>
	<g>
		<g>
			<g id="XMLID_3_">
				<g id="XMLID_4_">
					<g id="XMLID_5_">
						<path id="XMLID_7_" class="st2" d="M29.4,19.6c0-3,2.4-4.4,2.6-4.5c-1.4-2-3.6-2.3-4.3-2.3c-1.8-0.2-3.6,1.1-4.5,1.1
							c-0.9,0-2.4-1.1-3.9-1c-2,0-3.8,1.2-4.9,3c-2.1,3.6-0.5,9,1.5,11.9c1,1.4,2.2,3,3.7,3c1.5-0.1,2.1-1,3.9-1
							c1.8,0,2.3,1,3.9,0.9c1.6,0,2.6-1.4,3.6-2.9c1.2-1.7,1.6-3.3,1.6-3.4C32.6,24.4,29.5,23.2,29.4,19.6z"/>
						<path id="XMLID_6_" class="st2" d="M26.5,10.8c0.8-1,1.4-2.4,1.2-3.8c-1.2,0.1-2.6,0.8-3.5,1.8c-0.7,0.9-1.4,2.3-1.2,3.7
							C24.3,12.6,25.6,11.8,26.5,10.8z"/>
					</g>
				</g>
				<g>
					<path class="st2" d="M48.5,27h-5.1l-1.2,3.6h-2.2l4.9-13.5h2.3l4.9,13.5h-2.2L48.5,27z M43.9,25.4H48l-2-5.9h-0.1L43.9,25.4z"
						/>
					<path class="st2" d="M62.5,25.8c0,3.1-1.6,5-4.1,5c-1.4,0-2.5-0.6-3.1-1.7h0v4.9h-2V20.9h2v1.6h0c0.6-1.1,1.8-1.7,3.1-1.7
						C60.8,20.8,62.5,22.7,62.5,25.8z M60.4,25.8c0-2-1-3.3-2.6-3.3c-1.5,0-2.6,1.3-2.6,3.3c0,2,1,3.3,2.6,3.3
						C59.3,29.1,60.4,27.8,60.4,25.8z"/>
					<path class="st2" d="M73.3,25.8c0,3.1-1.6,5-4.1,5c-1.4,0-2.5-0.6-3.1-1.7h0v4.9h-2V20.9h2v1.6h0c0.6-1.1,1.8-1.7,3.1-1.7
						C71.6,20.8,73.3,22.7,73.3,25.8z M71.2,25.8c0-2-1-3.3-2.6-3.3c-1.5,0-2.6,1.3-2.6,3.3c0,2,1,3.3,2.6,3.3
						C70.2,29.1,71.2,27.8,71.2,25.8z"/>
					<path class="st2" d="M80.4,26.9c0.1,1.3,1.4,2.2,3.2,2.2c1.7,0,2.9-0.9,2.9-2.1c0-1-0.7-1.7-2.5-2.1l-1.7-0.4
						c-2.5-0.6-3.6-1.8-3.6-3.6c0-2.3,2-3.9,4.9-3.9c2.8,0,4.8,1.6,4.9,3.9h-2c-0.1-1.3-1.2-2.2-2.9-2.2s-2.7,0.8-2.7,2
						c0,1,0.7,1.5,2.4,1.9l1.5,0.4c2.8,0.7,3.9,1.8,3.9,3.7c0,2.5-2,4.1-5.2,4.1c-3,0-5-1.5-5.1-4H80.4z"/>
					<path class="st2" d="M93.1,18.5v2.3h1.9v1.6h-1.9v5.4c0,0.8,0.4,1.2,1.2,1.2c0.2,0,0.5,0,0.7,0v1.6c-0.2,0.1-0.7,0.1-1.1,0.1
						c-2,0-2.8-0.7-2.8-2.7v-5.6h-1.4v-1.6H91v-2.3H93.1z"/>
					<path class="st2" d="M96,25.8c0-3.1,1.8-5,4.7-5c2.9,0,4.7,1.9,4.7,5c0,3.1-1.8,5-4.7,5C97.8,30.8,96,28.9,96,25.8z
						 M103.3,25.8c0-2.1-1-3.4-2.6-3.4c-1.6,0-2.6,1.3-2.6,3.4c0,2.1,1,3.4,2.6,3.4C102.3,29.1,103.3,27.9,103.3,25.8z"/>
					<path class="st2" d="M107,20.9h1.9v1.7h0c0.3-1.1,1.2-1.8,2.4-1.8c0.3,0,0.5,0,0.7,0.1v1.9c-0.2-0.1-0.5-0.1-0.9-0.1
						c-1.3,0-2.1,0.9-2.1,2.3v5.8h-2V20.9z"/>
					<path class="st2" d="M121.3,27.8c-0.3,1.8-2,3-4.2,3c-2.9,0-4.6-1.9-4.6-5c0-3.1,1.8-5.1,4.6-5.1c2.7,0,4.4,1.9,4.4,4.9v0.7
						h-6.9v0.1c0,1.7,1.1,2.8,2.6,2.8c1.1,0,2-0.5,2.3-1.4H121.3z M114.5,24.9h4.9c0-1.5-1-2.5-2.4-2.5
						C115.6,22.4,114.6,23.4,114.5,24.9z"/>
				</g>
			</g>
		</g>
		<g id="XMLID_2_">
			<g>
				<path class="st2" d="M43.5,7.4c1.8,0,2.9,1.1,2.9,3c0,2-1.1,3.1-2.9,3.1h-2.2V7.4H43.5z M42.2,12.7h1.2c1.3,0,2-0.8,2-2.2
					c0-1.4-0.7-2.2-2-2.2h-1.2V12.7z"/>
				<path class="st2" d="M47.4,11.2c0-1.5,0.8-2.4,2.2-2.4c1.3,0,2.2,0.9,2.2,2.4c0,1.5-0.8,2.4-2.2,2.4
					C48.3,13.6,47.4,12.7,47.4,11.2z M50.8,11.2c0-1-0.4-1.6-1.2-1.6c-0.8,0-1.2,0.6-1.2,1.6c0,1,0.4,1.6,1.2,1.6
					C50.4,12.8,50.8,12.2,50.8,11.2z"/>
				<path class="st2" d="M57.6,13.5h-0.9l-1-3.4h-0.1l-0.9,3.4h-0.9l-1.3-4.6h0.9l0.8,3.5h0.1l0.9-3.5h0.9l0.9,3.5h0.1l0.8-3.5h0.9
					L57.6,13.5z"/>
				<path class="st2" d="M59.9,8.9h0.9v0.7h0.1c0.2-0.5,0.7-0.8,1.4-0.8c1,0,1.6,0.6,1.6,1.7v3h-0.9v-2.8c0-0.7-0.3-1.1-1-1.1
					c-0.7,0-1.1,0.4-1.1,1.2v2.7h-0.9V8.9z"/>
				<path class="st2" d="M65.3,7.1h0.9v6.4h-0.9V7.1z"/>
				<path class="st2" d="M67.4,11.2c0-1.5,0.8-2.4,2.2-2.4c1.3,0,2.2,0.9,2.2,2.4c0,1.5-0.8,2.4-2.2,2.4
					C68.3,13.6,67.4,12.7,67.4,11.2z M70.8,11.2c0-1-0.4-1.6-1.2-1.6c-0.8,0-1.2,0.6-1.2,1.6c0,1,0.4,1.6,1.2,1.6
					C70.4,12.8,70.8,12.2,70.8,11.2z"/>
				<path class="st2" d="M72.7,12.2c0-0.8,0.6-1.3,1.7-1.4l1.2-0.1v-0.4c0-0.5-0.3-0.8-0.9-0.8c-0.5,0-0.9,0.2-1,0.5h-0.9
					c0.1-0.8,0.8-1.3,1.9-1.3c1.2,0,1.8,0.6,1.8,1.5v3.1h-0.9v-0.6h-0.1c-0.3,0.5-0.8,0.7-1.4,0.7C73.4,13.6,72.7,13.1,72.7,12.2z
					 M75.7,11.8v-0.4l-1.1,0.1c-0.6,0-0.9,0.3-0.9,0.7c0,0.4,0.4,0.7,0.9,0.7C75.2,12.8,75.7,12.4,75.7,11.8z"/>
				<path class="st2" d="M77.8,11.2c0-1.5,0.7-2.4,1.9-2.4c0.6,0,1.2,0.3,1.4,0.8h0.1V7.1h0.9v6.4h-0.9v-0.7h-0.1
					c-0.3,0.5-0.8,0.8-1.4,0.8C78.5,13.6,77.8,12.7,77.8,11.2z M78.7,11.2c0,1,0.5,1.6,1.2,1.6c0.8,0,1.2-0.6,1.2-1.6
					c0-1-0.5-1.6-1.2-1.6C79.2,9.7,78.7,10.3,78.7,11.2z"/>
				<path class="st2" d="M85.9,11.2c0-1.5,0.8-2.4,2.2-2.4c1.3,0,2.2,0.9,2.2,2.4c0,1.5-0.8,2.4-2.2,2.4
					C86.7,13.6,85.9,12.7,85.9,11.2z M89.3,11.2c0-1-0.4-1.6-1.2-1.6c-0.8,0-1.2,0.6-1.2,1.6c0,1,0.4,1.6,1.2,1.6
					C88.8,12.8,89.3,12.2,89.3,11.2z"/>
				<path class="st2" d="M91.4,8.9h0.9v0.7h0.1c0.2-0.5,0.7-0.8,1.4-0.8c1,0,1.6,0.6,1.6,1.7v3h-0.9v-2.8c0-0.7-0.3-1.1-1-1.1
					c-0.7,0-1.1,0.4-1.1,1.2v2.7h-0.9V8.9z"/>
				<path class="st2" d="M100.5,7.8v1.2h1v0.8h-1v2.4c0,0.5,0.2,0.7,0.7,0.7c0.1,0,0.2,0,0.3,0v0.8c-0.1,0-0.3,0-0.5,0
					c-1,0-1.4-0.4-1.4-1.2V9.7h-0.7V8.9h0.7V7.8H100.5z"/>
				<path class="st2" d="M102.7,7.1h0.9v2.5h0.1c0.2-0.5,0.7-0.8,1.4-0.8c1,0,1.6,0.6,1.6,1.7v3h-0.9v-2.8c0-0.7-0.3-1.1-1-1.1
					c-0.7,0-1.2,0.5-1.2,1.2v2.7h-0.9V7.1z"/>
				<path class="st2" d="M112,12.3c-0.2,0.8-0.9,1.3-2,1.3c-1.3,0-2.1-0.9-2.1-2.4c0-1.5,0.8-2.4,2.1-2.4c1.3,0,2.1,0.9,2.1,2.3v0.3
					h-3.3v0.1c0,0.8,0.5,1.3,1.2,1.3c0.6,0,0.9-0.2,1.1-0.6H112z M108.8,10.8h2.3c0-0.7-0.5-1.2-1.1-1.2
					C109.3,9.6,108.8,10.1,108.8,10.8z"/>
			</g>
		</g>
	</g>
</g>
</svg>
