<?xml version="1.0" encoding="utf-8"?>
<!-- Generator: Adobe Illustrator 22.0.1, SVG Export Plug-In . SVG Version: 6.00 Build 0)  -->
<svg version="1.1" id="livetype" xmlns="http://www.w3.org/2000/svg" xmlns:xlink="http://www.w3.org/1999/xlink" x="0px" y="0px"
	 viewBox="0 0 134.8 40" style="enable-background:new 0 0 134.8 40;" xml:space="preserve">
<style type="text/css">
	.st0{fill:#13130F;}
	.st1{fill:#A6A6A6;}
	.st2{fill:#FFFFFF;}
	.st3{fill:#FFFFFF;stroke:#FFFFFF;stroke-width:0.2;stroke-miterlimit:10;}
	.st4{fill:url(#SVGID_1_);}
	.st5{fill:url(#SVGID_2_);}
	.st6{fill:url(#SVGID_3_);}
	.st7{fill:url(#SVGID_4_);}
	.st8{opacity:0.2;enable-background:new    ;}
	.st9{opacity:0.12;enable-background:new    ;}
	.st10{opacity:0.25;fill:#FFFFFF;enable-background:new    ;}
</style>
<g>
	<g>
		<path class="st0" d="M129.9,40H4.9c-2.8,0-5-2.2-5-5V5c0-2.7,2.2-5,5-5h125c2.8,0,5,2.2,5,5v30C134.9,37.7,132.7,40,129.9,40z"/>
	</g>
	<g>
		<g>
			<path class="st1" d="M129.9,0.8c2.3,0,4.2,1.9,4.2,4.2v30c0,2.3-1.9,4.2-4.2,4.2H4.9c-2.3,0-4.2-1.9-4.2-4.2V5
				c0-2.3,1.9-4.2,4.2-4.2H129.9 M129.9,0H4.9c-2.8,0-5,2.2-5,5v30c0,2.8,2.2,5,5,5h125c2.8,0,5-2.2,5-5V5
				C134.9,2.3,132.7,0,129.9,0L129.9,0z"/>
		</g>
	</g>
	<g>
		<g>
			<path class="st3" d="M46.9,10.2c0,0.8-0.2,1.5-0.7,2c-0.6,0.6-1.3,0.9-2.2,0.9c-0.9,0-1.6-0.3-2.2-0.9c-0.6-0.6-0.9-1.3-0.9-2.2
				c0-0.9,0.3-1.6,0.9-2.2c0.6-0.6,1.3-0.9,2.2-0.9c0.4,0,0.8,0.1,1.2,0.3c0.4,0.2,0.7,0.4,0.9,0.7l-0.5,0.5
				c-0.4-0.5-0.9-0.7-1.6-0.7c-0.6,0-1.2,0.2-1.6,0.7c-0.5,0.4-0.7,1-0.7,1.7s0.2,1.3,0.7,1.7c0.5,0.4,1,0.7,1.6,0.7
				c0.7,0,1.2-0.2,1.7-0.7c0.3-0.3,0.5-0.7,0.5-1.2H44V9.8h2.9C46.9,9.9,46.9,10.1,46.9,10.2z"/>
			<path class="st3" d="M51.5,7.7h-2.7v1.9h2.5v0.7h-2.5v1.9h2.7V13H48V7h3.5V7.7z"/>
			<path class="st3" d="M54.8,13H54V7.7h-1.7V7h4.1v0.7h-1.7V13z"/>
			<path class="st3" d="M59.5,13V7h0.8v6H59.5z"/>
			<path class="st3" d="M63.6,13h-0.8V7.7h-1.7V7h4.1v0.7h-1.7V13z"/>
			<path class="st3" d="M73.1,12.2c-0.6,0.6-1.3,0.9-2.2,0.9c-0.9,0-1.6-0.3-2.2-0.9c-0.6-0.6-0.9-1.3-0.9-2.2s0.3-1.6,0.9-2.2
				c0.6-0.6,1.3-0.9,2.2-0.9c0.9,0,1.6,0.3,2.2,0.9C73.7,8.4,74,9.1,74,10C74,10.9,73.7,11.6,73.1,12.2z M69.3,11.7
				c0.4,0.4,1,0.7,1.6,0.7s1.2-0.2,1.6-0.7c0.4-0.4,0.7-1,0.7-1.7S73,8.7,72.6,8.3c-0.4-0.4-1-0.7-1.6-0.7s-1.2,0.2-1.6,0.7
				c-0.4,0.4-0.7,1-0.7,1.7S68.9,11.3,69.3,11.7z"/>
			<path class="st3" d="M75.1,13V7H76l2.9,4.7h0l0-1.2V7h0.8v6h-0.8l-3.1-4.9h0l0,1.2V13H75.1z"/>
		</g>
		<path class="st2" d="M67.7,21.8c-2.4,0-4.3,1.8-4.3,4.3c0,2.4,1.9,4.3,4.3,4.3c2.4,0,4.3-1.8,4.3-4.3C71.9,23.5,70,21.8,67.7,21.8
			z M67.7,28.6c-1.3,0-2.4-1.1-2.4-2.6c0-1.5,1.1-2.6,2.4-2.6c1.3,0,2.4,1,2.4,2.6C70.1,27.5,68.9,28.6,67.7,28.6z M58.3,21.8
			c-2.4,0-4.3,1.8-4.3,4.3c0,2.4,1.9,4.3,4.3,4.3c2.4,0,4.3-1.8,4.3-4.3C62.6,23.5,60.7,21.8,58.3,21.8z M58.3,28.6
			c-1.3,0-2.4-1.1-2.4-2.6c0-1.5,1.1-2.6,2.4-2.6c1.3,0,2.4,1,2.4,2.6C60.7,27.5,59.6,28.6,58.3,28.6z M47.3,23.1v1.8h4.3
			c-0.1,1-0.5,1.8-1,2.3c-0.6,0.6-1.6,1.3-3.3,1.3c-2.7,0-4.7-2.1-4.7-4.8s2.1-4.8,4.7-4.8c1.4,0,2.5,0.6,3.3,1.3l1.3-1.3
			c-1.1-1-2.5-1.8-4.5-1.8c-3.6,0-6.7,3-6.7,6.6c0,3.6,3.1,6.6,6.7,6.6c2,0,3.4-0.6,4.6-1.9c1.2-1.2,1.6-2.9,1.6-4.2
			c0-0.4,0-0.8-0.1-1.1H47.3z M92.6,24.5c-0.4-1-1.4-2.7-3.6-2.7c-2.2,0-4,1.7-4,4.3c0,2.4,1.8,4.3,4.2,4.3c1.9,0,3.1-1.2,3.5-1.9
			l-1.4-1c-0.5,0.7-1.1,1.2-2.1,1.2c-1,0-1.6-0.4-2.1-1.3l5.7-2.4L92.6,24.5z M86.8,25.9c0-1.6,1.3-2.5,2.2-2.5
			c0.7,0,1.4,0.4,1.6,0.9L86.8,25.9z M82.1,30H84V17.5h-1.9V30z M79.1,22.7L79.1,22.7c-0.5-0.5-1.3-1-2.3-1c-2.1,0-4.1,1.9-4.1,4.3
			c0,2.4,1.9,4.2,4.1,4.2c1,0,1.8-0.5,2.2-1h0.1v0.6c0,1.6-0.9,2.5-2.3,2.5c-1.1,0-1.9-0.8-2.1-1.5L73,31.6c0.5,1.1,1.7,2.5,3.8,2.5
			c2.2,0,4-1.3,4-4.4V22h-1.8V22.7z M76.9,28.6c-1.3,0-2.4-1.1-2.4-2.6c0-1.5,1.1-2.6,2.4-2.6c1.3,0,2.3,1.1,2.3,2.6
			C79.2,27.5,78.2,28.6,76.9,28.6z M101.3,17.5h-4.5V30h1.9v-4.7h2.6c2.1,0,4.1-1.5,4.1-3.9S103.4,17.5,101.3,17.5z M101.4,23.5
			h-2.7v-4.3h2.7c1.4,0,2.2,1.2,2.2,2.1C103.6,22.4,102.8,23.5,101.4,23.5z M112.9,21.7c-1.4,0-2.8,0.6-3.3,1.9l1.7,0.7
			c0.4-0.7,1-0.9,1.7-0.9c1,0,1.9,0.6,2,1.6v0.1c-0.3-0.2-1.1-0.5-1.9-0.5c-1.8,0-3.6,1-3.6,2.8c0,1.7,1.5,2.8,3.1,2.8
			c1.3,0,1.9-0.6,2.4-1.2h0.1v1h1.8v-4.8C116.7,23,115,21.7,112.9,21.7z M112.7,28.6c-0.6,0-1.5-0.3-1.5-1.1c0-1,1.1-1.3,2-1.3
			c0.8,0,1.2,0.2,1.7,0.4C114.8,27.8,113.8,28.6,112.7,28.6z M123.3,22l-2.1,5.4h-0.1l-2.2-5.4h-2l3.3,7.6l-1.9,4.2h1.9l5.1-11.8
			H123.3z M106.5,30h1.9V17.5h-1.9V30z"/>
		<g>
			
				<linearGradient id="SVGID_1_" gradientUnits="userSpaceOnUse" x1="21.3182" y1="41.2903" x2="4.5358" y2="24.5079" gradientTransform="matrix(1 0 0 -1 0 50)">
				<stop  offset="0" style="stop-color:#00A0FF"/>
				<stop  offset="6.574450e-03" style="stop-color:#00A1FF"/>
				<stop  offset="0.2601" style="stop-color:#00BEFF"/>
				<stop  offset="0.5122" style="stop-color:#00D2FF"/>
				<stop  offset="0.7604" style="stop-color:#00DFFF"/>
				<stop  offset="1" style="stop-color:#00E3FF"/>
			</linearGradient>
			<path class="st4" d="M10,7.5C9.7,7.8,9.5,8.3,9.5,8.9v22.1c0,0.6,0.2,1.1,0.5,1.4l0.1,0.1l12.4-12.4V20v-0.1L10,7.5L10,7.5z"/>
			
				<linearGradient id="SVGID_2_" gradientUnits="userSpaceOnUse" x1="33.3528" y1="29.9986" x2="9.1559" y2="29.9986" gradientTransform="matrix(1 0 0 -1 0 50)">
				<stop  offset="0" style="stop-color:#FFE000"/>
				<stop  offset="0.4087" style="stop-color:#FFBD00"/>
				<stop  offset="0.7754" style="stop-color:#FFA500"/>
				<stop  offset="1" style="stop-color:#FF9C00"/>
			</linearGradient>
			<path class="st5" d="M26.5,24.3l-4.1-4.1V20v-0.1l4.1-4.1l0.1,0.1l4.9,2.8c1.4,0.8,1.4,2.1,0,2.9L26.5,24.3L26.5,24.3z"/>
			
				<linearGradient id="SVGID_3_" gradientUnits="userSpaceOnUse" x1="24.3454" y1="27.7039" x2="1.5871" y2="4.9456" gradientTransform="matrix(1 0 0 -1 0 50)">
				<stop  offset="0" style="stop-color:#FF3A44"/>
				<stop  offset="1" style="stop-color:#C31162"/>
			</linearGradient>
			<path class="st6" d="M26.6,24.2L22.4,20L10,32.5c0.5,0.5,1.2,0.5,2.1,0.1L26.6,24.2"/>
			
				<linearGradient id="SVGID_4_" gradientUnits="userSpaceOnUse" x1="6.8158" y1="49.8238" x2="16.9783" y2="39.6613" gradientTransform="matrix(1 0 0 -1 0 50)">
				<stop  offset="0" style="stop-color:#32A071"/>
				<stop  offset="6.850000e-02" style="stop-color:#2DA771"/>
				<stop  offset="0.4762" style="stop-color:#15CF74"/>
				<stop  offset="0.8009" style="stop-color:#06E775"/>
				<stop  offset="1" style="stop-color:#00F076"/>
			</linearGradient>
			<path class="st7" d="M26.6,15.8L12,7.5C11.2,7,10.4,7.1,10,7.5L22.4,20L26.6,15.8z"/>
			<g>
				<path class="st8" d="M26.5,24.1L12,32.4c-0.8,0.5-1.5,0.4-2,0l0,0L10,32.5l0,0l0.1,0.1l0,0c0.5,0.4,1.2,0.5,2,0L26.5,24.1
					L26.5,24.1z"/>
				<path class="st9" d="M10,32.3c-0.3-0.3-0.5-0.8-0.5-1.4v0.1c0,0.6,0.2,1.1,0.5,1.4V32.3L10,32.3z"/>
			</g>
			<path class="st9" d="M31.5,21.3l-5,2.8l0.1,0.1l4.9-2.8c0.7-0.4,1-0.9,1-1.4l0,0C32.5,20.5,32.2,20.9,31.5,21.3z"/>
			<path class="st10" d="M12,7.6l19.5,11.1c0.6,0.4,1,0.8,1,1.3l0,0c0-0.5-0.3-1-1-1.4L12,7.5c-1.4-0.8-2.5-0.1-2.5,1.5v0.1
				C9.5,7.5,10.6,6.8,12,7.6z"/>
		</g>
	</g>
</g>
</svg>
